# xmcd
#
# Track frame offsets:
# 150
# 20896
# 42727
# 68685
# 92199
# 112510
# 134345
# 152362
# 174034
# 187734
# 216344
# 243740
#
# Disc length: 3607 seconds
#
# Revision: 0
# Processed by: cddbd v1.5.2PL0 Copyright (c) Steve Scherf et al.
# Submitted via: Audion 3.0.2 (http://www.panic.com/audion/)
#
DISCID=9b0e150c
DTITLE=Compilation Cd from Starbucks - Wind Down
DYEAR=1900
DGENRE=
TTITLE0=Frou Frou, Breathe In
TTITLE1=Alif Tree, I feel blue
TTITLE2=Ennio Morricone, Amore Come Dolore
TTITLE3=Groove Armada, Tuning in
TTITLE4=Minus 8, Elysian Fields
TTITLE5=Tosca, Natrual High
TTITLE6=Slackwaz, close to my fire
TTITLE7=Thievery Corporation, Lebanese Blonde
TTITLE8=Moby, Natural Blues
TTITLE9=Boozoo Bajou, Night Over Manaus
TTITLE10=Moodorama, Behind the Scenes
TTITLE11=Propellerheads, Winning Style
EXTD=
EXTT0=
EXTT1=
EXTT2=
EXTT3=
EXTT4=
EXTT5=
EXTT6=
EXTT7=
EXTT8=
EXTT9=
EXTT10=
EXTT11=
PLAYORDER=
